<svg width="90" height="29" viewBox="0 0 90 29" fill="none" xmlns="http://www.w3.org/2000/svg">
<path d="M7.99359 0.249999L7.48359 17.08L14.7736 0.249999H25.8136C25.6736 3.63 25.6036 7.25 25.6036 11.11C25.6036 14.99 25.6736 18.62 25.8136 22H18.1036L18.6436 5.62L11.3836 22H0.643592C0.803592 18.12 0.883592 14.49 0.883592 11.11C0.883592 7.75 0.803592 4.13 0.643592 0.249999H7.99359ZM35.012 22H28.622C28.722 19.7 28.772 16.97 28.772 13.81C28.772 10.63 28.722 7.9 28.622 5.62H45.482C45.462 6.32 45.452 7.72 45.452 9.82V11.44H35.012V22ZM60.1888 5.32C61.4888 5.32 62.6588 5.69 63.6988 6.43C64.7388 7.17 65.5488 8.18 66.1288 9.46C66.7088 10.72 66.9988 12.11 66.9988 13.63C66.9988 15.13 66.7088 16.55 66.1288 17.89C65.5488 19.21 64.7288 20.28 63.6688 21.1C62.6288 21.9 61.4388 22.3 60.0988 22.3C58.5388 22.3 57.1988 21.98 56.0788 21.34C54.9788 20.68 54.1588 19.67 53.6188 18.31C53.6188 19.45 53.6588 21.28 53.7388 23.8C53.8188 26.24 53.8588 27.96 53.8588 28.96H47.0788C47.1988 25.24 47.2588 21.35 47.2588 17.29C47.2588 13.23 47.1988 9.34 47.0788 5.62H52.8388L53.7088 9.37C54.2688 7.97 55.1088 6.95 56.2288 6.31C57.3488 5.65 58.6688 5.32 60.1888 5.32ZM56.9788 16.9C57.8788 16.9 58.6288 16.62 59.2288 16.06C59.8488 15.48 60.1588 14.73 60.1588 13.81C60.1588 12.79 59.8788 11.96 59.3188 11.32C58.7588 10.68 57.9988 10.36 57.0388 10.36C55.9388 10.36 55.1088 10.63 54.5488 11.17C53.9888 11.69 53.7088 12.57 53.7088 13.81C53.7088 14.51 53.8888 15.1 54.2488 15.58C54.6088 16.04 55.0388 16.38 55.5388 16.6C56.0388 16.8 56.5188 16.9 56.9788 16.9ZM88.7501 17.02C88.7501 17.7 88.8301 18.18 88.9901 18.46C89.1501 18.74 89.4701 18.94 89.9501 19.06L89.8301 21.88C89.1901 21.98 88.6301 22.05 88.1501 22.09C87.6901 22.13 87.0701 22.15 86.2901 22.15C84.5701 22.15 83.4301 21.77 82.8701 21.01C82.3101 20.23 82.0301 19.24 82.0301 18.04V17.29C81.4501 18.93 80.6001 20.15 79.4801 20.95C78.3801 21.75 76.9701 22.15 75.2501 22.15C73.2501 22.15 71.7401 21.75 70.7201 20.95C69.7201 20.15 69.2201 18.96 69.2201 17.38C69.2201 16.08 69.6501 15.06 70.5101 14.32C71.3701 13.58 72.7001 13.07 74.5001 12.79C72.9801 11.71 71.4601 10.77 69.9401 9.97C71.1401 8.45 72.5101 7.3 74.0501 6.52C75.5901 5.72 77.4601 5.32 79.6601 5.32C82.7401 5.32 85.0201 5.99 86.5001 7.33C88.0001 8.65 88.7501 10.69 88.7501 13.45V17.02ZM80.2901 10.6C79.2701 10.6 78.3701 10.77 77.5901 11.11C76.8101 11.45 76.1101 11.96 75.4901 12.64C76.6901 12.5 78.1901 12.43 79.9901 12.43C80.7301 12.43 81.2501 12.34 81.5501 12.16C81.8501 11.98 82.0001 11.75 82.0001 11.47C82.0001 11.23 81.8501 11.03 81.5501 10.87C81.2501 10.69 80.8301 10.6 80.2901 10.6ZM77.1401 17.26C78.2601 17.26 79.2701 17.05 80.1701 16.63C81.0701 16.19 81.6901 15.62 82.0301 14.92V14.14C81.5501 14.38 81.0201 14.57 80.4401 14.71C79.8601 14.83 79.1601 14.95 78.3401 15.07L77.2601 15.25C76.1401 15.47 75.5801 15.85 75.5801 16.39C75.5801 16.97 76.1001 17.26 77.1401 17.26Z" fill="#8B3DDA"/>
</svg>
